<svg width="47" height="64" viewBox="0 0 47 64" fill="none" xmlns="http://www.w3.org/2000/svg">
<path d="M45.907 13.8137V59.7289C45.907 61.5035 44.4783 62.9322 42.7036 62.9322H4.26291C2.48826 62.9322 1.05957 61.5035 1.05957 59.7289V4.20338C1.05957 2.42871 2.48826 1 4.26291 1H33.0934L45.907 13.8137Z" stroke="#A5A5A5" stroke-linecap="round" stroke-linejoin="round"/>
<path d="M0 49.0508V53.322V57.5931V59.7287C0 62.095 1.9049 63.9999 4.27118 63.9999H42.7118C45.0781 63.9999 46.983 62.095 46.983 59.7287V57.5931V53.322V49.0508H42.7118H4.27118H0ZM28.7512 51.1655C28.7873 51.1637 28.8235 51.1637 28.8597 51.1655C29.0756 51.1707 29.2849 51.2413 29.4599 51.3679C29.6349 51.4945 29.7674 51.6711 29.8399 51.8746L32.0422 57.7475L34.2445 51.8746C34.3436 51.6091 34.544 51.3939 34.8017 51.2762C35.0594 51.1585 35.3534 51.148 35.6188 51.247C35.8843 51.346 36.0996 51.5464 36.2173 51.8041C36.3351 52.0618 36.3456 52.3557 36.2466 52.6212L33.0432 61.1636C32.9673 61.3679 32.8308 61.5441 32.6518 61.6685C32.4729 61.7929 32.2601 61.8596 32.0422 61.8596C31.8242 61.8596 31.6115 61.7929 31.4326 61.6685C31.2536 61.5441 31.117 61.3679 31.0411 61.1636L27.8377 52.6212C27.7766 52.4656 27.7528 52.2978 27.7683 52.1314C27.7838 51.9649 27.8381 51.8044 27.927 51.6628C28.0159 51.5212 28.1367 51.4024 28.2799 51.316C28.4231 51.2296 28.5845 51.1781 28.7512 51.1655V51.1655ZM11.629 51.1864V51.1905C11.6651 51.1887 11.7013 51.1887 11.7374 51.1905H13.873C14.0145 51.1885 14.155 51.2147 14.2863 51.2674C14.4176 51.3202 14.5371 51.3985 14.6379 51.4979C14.7386 51.5972 14.8186 51.7156 14.8733 51.8462C14.9279 51.9767 14.956 52.1168 14.956 52.2583C14.956 52.3998 14.9279 52.5399 14.8733 52.6705C14.8186 52.801 14.7386 52.9194 14.6379 53.0188C14.5371 53.1181 14.4176 53.1965 14.2863 53.2492C14.155 53.302 14.0145 53.3281 13.873 53.3261H11.9042C9.99879 53.3261 8.53402 54.7576 8.53402 56.5295C8.53402 58.3006 9.99886 59.7329 11.9042 59.7329H13.8897C14.0312 59.7309 14.1717 59.757 14.303 59.8098C14.4343 59.8626 14.5538 59.9409 14.6545 60.0403C14.7553 60.1396 14.8353 60.258 14.8899 60.3885C14.9446 60.5191 14.9727 60.6592 14.9727 60.8007C14.9727 60.9422 14.9446 61.0823 14.8899 61.2129C14.8353 61.3434 14.7553 61.4618 14.6545 61.5611C14.5538 61.6605 14.4343 61.7388 14.303 61.7916C14.1717 61.8444 14.0312 61.8705 13.8897 61.8685H11.7541C11.6479 61.8675 11.5425 61.8506 11.4413 61.8184C8.64645 61.5863 6.39843 59.3311 6.39843 56.5253C6.39843 53.7318 8.62644 51.4815 11.4037 51.2323C11.4769 51.2089 11.5524 51.1935 11.629 51.1864V51.1864ZM20.2047 51.1864C20.2408 51.1845 20.277 51.1845 20.3131 51.1864C20.3381 51.1855 20.3632 51.1855 20.3882 51.1864H24.5843C24.7258 51.1844 24.8663 51.2105 24.9976 51.2633C25.1289 51.316 25.2484 51.3944 25.3492 51.4937C25.4499 51.5931 25.53 51.7115 25.5846 51.842C25.6392 51.9726 25.6673 52.1127 25.6673 52.2542C25.6673 52.3957 25.6392 52.5358 25.5846 52.6663C25.53 52.7969 25.4499 52.9153 25.3492 53.0146C25.2484 53.114 25.1289 53.1923 24.9976 53.2451C24.8663 53.2978 24.7258 53.324 24.5843 53.322H20.3131C19.7031 53.322 19.2453 53.7798 19.2453 54.3898C19.2453 54.9999 19.7031 55.4576 20.3131 55.4576C20.3381 55.4567 20.3632 55.4567 20.3882 55.4576H22.4487C22.5257 55.4562 22.6026 55.4632 22.6781 55.4784C24.3275 55.5995 25.6521 56.9832 25.6521 58.6609C25.6521 60.3416 24.3229 61.7218 22.6698 61.8393C22.5972 61.8553 22.5231 61.8637 22.4487 61.8643H18.1775C18.036 61.8663 17.8956 61.8402 17.7643 61.7874C17.633 61.7347 17.5134 61.6563 17.4127 61.557C17.3119 61.4576 17.2319 61.3392 17.1773 61.2087C17.1227 61.0781 17.0945 60.938 17.0945 60.7965C17.0945 60.655 17.1227 60.5149 17.1773 60.3844C17.2319 60.2538 17.3119 60.1354 17.4127 60.0361C17.5134 59.9367 17.633 59.8584 17.7643 59.8056C17.8956 59.7529 18.036 59.7267 18.1775 59.7287H22.4487C23.0587 59.7287 23.5165 59.2711 23.5165 58.6609C23.5165 58.051 23.0587 57.5931 22.4487 57.5931H20.3131C20.2459 57.5925 20.1789 57.5855 20.1129 57.5723C18.4499 57.4657 17.1097 56.0777 17.1097 54.3898C17.1097 52.7163 18.4279 51.3395 20.0712 51.2114C20.1151 51.2002 20.1597 51.1919 20.2047 51.1864V51.1864Z" fill="#A5A5A5"/>
<path d="M45.9072 13.8137H36.2971C34.5224 13.8137 33.0938 12.3847 33.0938 10.6103V1" fill="#A5A5A5"/>
<path d="M45.9072 13.8137H36.2971C34.5224 13.8137 33.0938 12.3847 33.0938 10.6103V1" stroke="#A5A5A5" stroke-linecap="round" stroke-linejoin="round"/>
<path d="M7.47502 17.0078C7.19183 17.0078 6.92025 17.1204 6.72001 17.3206C6.51976 17.5209 6.40725 17.7924 6.40723 18.0756V22.3468C6.40725 22.63 6.51976 22.9015 6.72001 23.1018C6.92025 23.302 7.19183 23.4146 7.47502 23.4146H18.153C18.4362 23.4146 18.7077 23.302 18.908 23.1018C19.1082 22.9015 19.2207 22.63 19.2208 22.3468V18.0756C19.2207 17.7924 19.1082 17.5209 18.908 17.3206C18.7077 17.1204 18.4362 17.0078 18.153 17.0078H7.47502ZM8.54282 19.1434H17.0852V21.279H8.54282V19.1434ZM7.47502 25.5502C7.19183 25.5502 6.92025 25.6628 6.72001 25.863C6.51976 26.0632 6.40725 26.3348 6.40723 26.618V30.8891C6.40725 31.1723 6.51976 31.4439 6.72001 31.6441C6.92025 31.8444 7.19183 31.9569 7.47502 31.9569H18.153C18.4362 31.9569 18.7077 31.8444 18.908 31.6441C19.1082 31.4439 19.2207 31.1723 19.2208 30.8891V26.618C19.2207 26.3348 19.1082 26.0632 18.908 25.863C18.7077 25.6628 18.4362 25.5502 18.153 25.5502H7.47502ZM8.54282 27.6858H17.0852V29.8214H8.54282V27.6858Z" fill="#A5A5A5"/>
<path d="M7.47502 29.8223C7.19183 29.8223 6.92025 29.9349 6.72001 30.1351C6.51976 30.3353 6.40725 30.6069 6.40723 30.8901V35.1612C6.40725 35.4444 6.51976 35.716 6.72001 35.9162C6.92025 36.1164 7.19183 36.229 7.47502 36.229H18.153C18.4362 36.229 18.7077 36.1164 18.908 35.9162C19.1082 35.716 19.2207 35.4444 19.2208 35.1612V30.8901C19.2207 30.6069 19.1082 30.3353 18.908 30.1351C18.7077 29.9349 18.4362 29.8223 18.153 29.8223H7.47502ZM8.54282 31.9579H17.0852V34.0934H8.54282V31.9579Z" fill="#A5A5A5"/>
<path d="M7.47502 34.0938C7.19183 34.0938 6.92025 34.2063 6.72001 34.4066C6.51976 34.6068 6.40725 34.8784 6.40723 35.1615V39.4327C6.40725 39.7159 6.51976 39.9874 6.72001 40.1877C6.92025 40.3879 7.19183 40.5005 7.47502 40.5005H18.153C18.4362 40.5005 18.7077 40.3879 18.908 40.1877C19.1082 39.9874 19.2207 39.7159 19.2208 39.4327V35.1615C19.2207 34.8784 19.1082 34.6068 18.908 34.4066C18.7077 34.2063 18.4362 34.0938 18.153 34.0938H7.47502ZM8.54282 36.2293H17.0852V38.3649H8.54282V36.2293Z" fill="#A5A5A5"/>
<path d="M7.47502 38.3637C7.19183 38.3637 6.92025 38.4763 6.72001 38.6765C6.51976 38.8768 6.40725 39.1483 6.40723 39.4315V43.7027C6.40725 43.9859 6.51976 44.2574 6.72001 44.4576C6.92025 44.6579 7.19183 44.7705 7.47502 44.7705H18.153C18.4362 44.7705 18.7077 44.6579 18.908 44.4576C19.1082 44.2574 19.2207 43.9859 19.2208 43.7027V39.4315C19.2207 39.1483 19.1082 38.8768 18.908 38.6765C18.7077 38.4763 18.4362 38.3637 18.153 38.3637H7.47502ZM8.54282 40.4993H17.0852V42.6349H8.54282V40.4993ZM28.8309 17.0078C28.5477 17.0078 28.2762 17.1204 28.0759 17.3206C27.8757 17.5209 27.7632 17.7924 27.7631 18.0756V22.3468C27.7632 22.63 27.8757 22.9015 28.0759 23.1018C28.2762 23.302 28.5477 23.4146 28.8309 23.4146H39.5089C39.7921 23.4146 40.0636 23.302 40.2639 23.1018C40.4641 22.9015 40.5766 22.63 40.5767 22.3468V18.0756C40.5766 17.7924 40.4641 17.5209 40.2639 17.3206C40.0636 17.1204 39.7921 17.0078 39.5089 17.0078H28.8309ZM29.8987 19.1434H38.4411V21.279H29.8987V19.1434ZM28.8309 25.5502C28.5477 25.5502 28.2762 25.6628 28.0759 25.863C27.8757 26.0632 27.7632 26.3348 27.7631 26.618V30.8891C27.7632 31.1723 27.8757 31.4439 28.0759 31.6441C28.2762 31.8444 28.5477 31.9569 28.8309 31.9569H39.5089C39.7921 31.9569 40.0636 31.8444 40.2639 31.6441C40.4641 31.4439 40.5766 31.1723 40.5767 30.8891V26.618C40.5766 26.3348 40.4641 26.0632 40.2639 25.863C40.0636 25.6628 39.7921 25.5502 39.5089 25.5502H28.8309ZM29.8987 27.6858H38.4411V29.8214H29.8987V27.6858Z" fill="#A5A5A5"/>
<path d="M28.8305 29.8223C28.5473 29.8223 28.2757 29.9349 28.0755 30.1351C27.8752 30.3353 27.7627 30.6069 27.7627 30.8901V35.1612C27.7627 35.4444 27.8752 35.716 28.0755 35.9162C28.2757 36.1164 28.5473 36.229 28.8305 36.229H39.5084C39.7916 36.229 40.0632 36.1164 40.2635 35.9162C40.4637 35.716 40.5762 35.4444 40.5762 35.1612V30.8901C40.5762 30.6069 40.4637 30.3353 40.2635 30.1351C40.0632 29.9349 39.7916 29.8223 39.5084 29.8223H28.8305ZM29.8983 31.9579H38.4406V34.0934H29.8983V31.9579Z" fill="#A5A5A5"/>
<path d="M28.8305 34.0938C28.5473 34.0938 28.2757 34.2063 28.0755 34.4066C27.8752 34.6068 27.7627 34.8784 27.7627 35.1615V39.4327C27.7627 39.7159 27.8752 39.9874 28.0755 40.1877C28.2757 40.3879 28.5473 40.5005 28.8305 40.5005H39.5084C39.7916 40.5005 40.0632 40.3879 40.2635 40.1877C40.4637 39.9874 40.5762 39.7159 40.5762 39.4327V35.1615C40.5762 34.8784 40.4637 34.6068 40.2635 34.4066C40.0632 34.2063 39.7916 34.0938 39.5084 34.0938H28.8305ZM29.8983 36.2293H38.4406V38.3649H29.8983V36.2293Z" fill="#A5A5A5"/>
<path d="M28.8307 38.3637C28.5475 38.3637 28.2759 38.4763 28.0757 38.6765C27.8754 38.8768 27.7629 39.1483 27.7629 39.4315V43.7027C27.7629 43.9859 27.8754 44.2574 28.0757 44.4576C28.2759 44.6579 28.5475 44.7705 28.8307 44.7705H39.5087C39.7918 44.7705 40.0634 44.6579 40.2637 44.4576C40.4639 44.2574 40.5764 43.9859 40.5764 43.7027V39.4315C40.5764 39.1483 40.4639 38.8768 40.2637 38.6765C40.0634 38.4763 39.7918 38.3637 39.5087 38.3637H28.8307ZM29.8985 40.4993H38.4409V42.6349H29.8985V40.4993ZM18.1528 17.0078C17.8696 17.0078 17.598 17.1204 17.3977 17.3206C17.1975 17.5209 17.085 17.7924 17.085 18.0756V22.3468C17.085 22.63 17.1975 22.9015 17.3977 23.1018C17.598 23.302 17.8696 23.4146 18.1528 23.4146H28.8307C29.1139 23.4146 29.3855 23.302 29.5857 23.1018C29.786 22.9015 29.8985 22.63 29.8985 22.3468V18.0756C29.8985 17.7924 29.786 17.5209 29.5857 17.3206C29.3855 17.1204 29.1139 17.0078 28.8307 17.0078H18.1528ZM19.2206 19.1434H27.7629V21.279H19.2206V19.1434ZM18.1528 25.5502C17.8696 25.5502 17.598 25.6628 17.3977 25.863C17.1975 26.0632 17.085 26.3348 17.085 26.618V30.8891C17.085 31.1723 17.1975 31.4439 17.3977 31.6441C17.598 31.8444 17.8696 31.9569 18.1528 31.9569H28.8307C29.1139 31.9569 29.3855 31.8444 29.5857 31.6441C29.786 31.4439 29.8985 31.1723 29.8985 30.8891V26.618C29.8985 26.3348 29.786 26.0632 29.5857 25.863C29.3855 25.6628 29.1139 25.5502 28.8307 25.5502H18.1528ZM19.2206 27.6858H27.7629V29.8214H19.2206V27.6858Z" fill="#A5A5A5"/>
<path d="M18.1528 29.8223C17.8696 29.8223 17.598 29.9349 17.3977 30.1351C17.1975 30.3353 17.085 30.6069 17.085 30.8901V35.1612C17.085 35.4444 17.1975 35.716 17.3977 35.9162C17.598 36.1164 17.8696 36.229 18.1528 36.229H28.8307C29.1139 36.229 29.3855 36.1164 29.5857 35.9162C29.786 35.716 29.8985 35.4444 29.8985 35.1612V30.8901C29.8985 30.6069 29.786 30.3353 29.5857 30.1351C29.3855 29.9349 29.1139 29.8223 28.8307 29.8223H18.1528ZM19.2206 31.9579H27.7629V34.0934H19.2206V31.9579Z" fill="#A5A5A5"/>
<path d="M18.1528 34.0938C17.8696 34.0938 17.598 34.2063 17.3977 34.4066C17.1975 34.6068 17.085 34.8784 17.085 35.1615V39.4327C17.085 39.7159 17.1975 39.9874 17.3977 40.1877C17.598 40.3879 17.8696 40.5005 18.1528 40.5005H28.8307C29.1139 40.5005 29.3855 40.3879 29.5857 40.1877C29.786 39.9874 29.8985 39.7159 29.8985 39.4327V35.1615C29.8985 34.8784 29.786 34.6068 29.5857 34.4066C29.3855 34.2063 29.1139 34.0938 28.8307 34.0938H18.1528ZM19.2206 36.2293H27.7629V38.3649H19.2206V36.2293Z" fill="#A5A5A5"/>
<path d="M18.1528 38.3652C17.8696 38.3653 17.598 38.4778 17.3977 38.6781C17.1975 38.8783 17.085 39.1498 17.085 39.433V43.7042C17.085 43.9874 17.1975 44.2589 17.3977 44.4592C17.598 44.6594 17.8696 44.772 18.1528 44.772H28.8307C29.1139 44.772 29.3855 44.6594 29.5857 44.4592C29.786 44.2589 29.8985 43.9874 29.8985 43.7042V39.433C29.8985 39.1498 29.786 38.8783 29.5857 38.6781C29.3855 38.4778 29.1139 38.3653 28.8307 38.3652H18.1528ZM19.2206 40.5008H27.7629V42.6364H19.2206V40.5008Z" fill="#A5A5A5"/>
</svg>
