<svg width="63" height="63" viewBox="0 0 63 63" fill="none" xmlns="http://www.w3.org/2000/svg">
<path d="M31.5 0C14.0921 0 0 14.0921 0 31.5C0 48.9079 14.0921 63 31.5 63C48.9079 63 63 48.9079 63 31.5C63 14.0921 48.9079 0 31.5 0ZM31.5 59.6842C15.9158 59.6842 3.31579 47.0842 3.31579 31.5C3.31579 15.9158 15.9158 3.31579 31.5 3.31579C47.0842 3.31579 59.6842 15.9158 59.6842 31.5C59.6842 47.0842 47.0842 59.6842 31.5 59.6842ZM50.4829 20.8066C49.8197 20.1434 48.825 20.1434 48.1618 20.8066L27.0237 42.0276L18.1539 33.1579C17.4908 32.4947 16.4132 32.4947 15.8329 33.1579C15.1697 33.8211 15.1697 34.8987 15.8329 35.4789L25.8632 45.5092C26.1947 45.8408 26.6092 46.0066 27.0237 46.0066C27.4382 46.0066 27.8526 45.8408 28.1842 45.5092L50.4829 23.1276C51.1461 22.4645 51.1461 21.4697 50.4829 20.8066V20.8066Z" fill="#A5A5A5"/>
</svg>
